<svg width="676" height="384" viewBox="0 0 676 384" fill="none" xmlns="http://www.w3.org/2000/svg">
<g clip-path="url(#clip0_26_212)">
<g filter="url(#filter0_f_26_212)">
<path d="M360 453.974C493.009 453.974 600.834 340.266 600.834 200C600.834 59.734 493.009 -53.974 360 -53.974C226.991 -53.974 119.166 59.734 119.166 200C119.166 340.266 226.991 453.974 360 453.974Z" fill="#00438F"/>
<path d="M186.011 566.178C329.85 566.178 446.455 479.923 446.455 373.522C446.455 267.121 329.85 180.866 186.011 180.866C42.1719 180.866 -74.4329 267.121 -74.4329 373.522C-74.4329 479.923 42.1719 566.178 186.011 566.178Z" fill="#005DC8"/>
<path d="M767.996 627.358C865.986 627.358 945.422 508.354 945.422 361.556C945.422 214.758 865.986 95.754 767.996 95.754C670.006 95.754 590.57 214.758 590.57 361.556C590.57 508.354 670.006 627.358 767.996 627.358Z" fill="#087BFF"/>
<path d="M679.188 243.503C828.509 243.503 949.558 153.029 949.558 41.4234C949.558 -70.1823 828.509 -160.657 679.188 -160.657C529.867 -160.657 408.818 -70.1823 408.818 41.4234C408.818 153.029 529.867 243.503 679.188 243.503Z" fill="#419AFF"/>
<path d="M86.3002 286.257C221.758 286.257 331.568 182.703 331.568 54.9626C331.568 -72.7776 221.758 -176.331 86.3002 -176.331C-49.1575 -176.331 -158.968 -72.7776 -158.968 54.9626C-158.968 182.703 -49.1575 286.257 86.3002 286.257Z" fill="#81BBFF"/>
</g>
</g>
<defs>
<filter id="filter0_f_26_212" x="-398.968" y="-416.331" width="1588.53" height="1283.69" filterUnits="userSpaceOnUse" color-interpolation-filters="sRGB">
<feFlood flood-opacity="0" result="BackgroundImageFix"/>
<feBlend mode="normal" in="SourceGraphic" in2="BackgroundImageFix" result="shape"/>
<feGaussianBlur stdDeviation="120" result="effect1_foregroundBlur_26_212"/>
</filter>
<clipPath id="clip0_26_212">
<rect width="676" height="384" fill="white"/>
</clipPath>
</defs>
</svg>
